<svg xmlns="http://www.w3.org/2000/svg" xml:space="preserve" width="308.7612359841165" height="304.915625" data-id="lg_NurbkgFmr9PxTWXWa6" data-version="1" viewBox="0 0 106.00782394174519 104.68749999999999"><g data-padding="20"><g transform="translate(10 6.115)scale(.96154)"><rect width="173.135" height="317.53" x="535.848" y="-399.645" fill="none" rx="0" ry="0" transform="translate(593.93 399.88)"/><path fill="#272727" d="m1169.466 247.33-9.28-.28q-1.68 0-4.21-.28-1.69-13.21-1.69-37.66l-.28-37.37v-32.31q0-23.05.56-65.2V59.9q0-4.77 3.66-7.02 3.65-2.25 7.3-2.53 3.66-.28 8.15-.28h5.62q40.19 0 66.74 16.44t26.55 44.54q0 17.98-10.67 33.43l-23.89 23.89q0 1.12 17.99 18.83 28.66 27.82 33.43 33.15 4.78 5.34 6.61 7.17 1.82 1.83 2.95 2.95 2.81 3.37 2.67 5.34t-5.9 8.15-8.57 6.18-6.89-4.35q-4.07-4.36-7.87-7.73-3.79-3.37-14.33-14.33-10.53-10.96-26.55-26.84t-17.14-15.88l-31.19 6.47q-.57 2.25-.57 28.8t-2.24 28.8q-2.25 2.25-10.96 2.25m13.2-176.19q-.84 4.5-.84 34.29 0 29.78 1.13 65.47 23.88-1.41 43.27-17.56 19.39-16.16 19.39-36.39 0-20.24-16.16-33.3-16.16-13.07-40.32-13.07-1.97 0-6.47.56"/><path fill="#3d9970" d="M852.146 110.1a151.096 73.087-45 1 0 103.36 103.36 151.096 73.087-45 1 0-103.36-103.36"/><path fill="#ffdc00" d="M831.986 159.22a75.48 156.044 0 1 0 150.96 0 75.48 156.044 0 1 0-150.96 0"/><path fill="#0074d9" d="M852.446 212.84a75.972 157.06-45 1 0 107.44-107.44 75.972 157.06-45 1 0-107.44 107.44"/></g><path fill="transparent" stroke="transparent" d="M752.562 0h520v318h-520z"/></g></svg>